<svg width="39" height="47" viewBox="0 0 39 47" fill="none" xmlns="http://www.w3.org/2000/svg">
<path d="M6.16648 18.6007L0 47.0003L15.8361 23.1193C16.3975 22.273 16.6248 21.2443 16.4733 20.2369L14.0477 4.11375H9.4649L7.39558 13.5816L12.4403 13.5614C12.6886 13.5603 12.9199 13.689 13.0521 13.9015C13.9437 15.3357 13.6152 17.2197 12.2926 18.259C12.0221 18.4715 11.6891 18.5873 11.3467 18.5884L6.16704 18.6019L6.16648 18.6007Z" fill="white"/>
<path d="M28.301 4.11375H19.3539L21.6052 15.4236L28.301 4.11375Z" fill="white"/>
<path d="M18.5955 28.2045L33.2417 5.59159C33.2417 5.59159 42.7387 11.0795 35.0322 21.6487C28.1245 31.1221 21.9143 28.9149 18.596 28.205L18.5955 28.2045Z" fill="white"/>
<path d="M26.7596 3.55606L15.8991 3.77869L25.4619 0.141138C26.0897 -0.0977108 26.7596 0.371596 26.7596 1.04955V3.55606Z" fill="white"/>
<path d="M10.4299 3.90231C10.4299 3.90231 18.8443 0.216655 19.9208 0.0186395C20.9972 -0.179376 21.5022 1.25539 20.1857 1.71296C18.8692 2.17052 13.6591 3.90175 13.6591 3.90175H10.4304L10.4299 3.90231Z" fill="white"/>
<path d="M11.2924 16.6637C11.611 16.6637 11.8693 16.4025 11.8693 16.0802C11.8693 15.758 11.611 15.4968 11.2924 15.4968C10.9738 15.4968 10.7155 15.758 10.7155 16.0802C10.7155 16.4025 10.9738 16.6637 11.2924 16.6637Z" fill="white"/>
</svg>
